<svg width="52" height="53" viewBox="0 0 52 53" fill="none" xmlns="http://www.w3.org/2000/svg">
<g id="ph:arrow-up-light" clip-path="url(#clip0_206_136)">
<path id="Vector" d="M16.7703 41.7817C16.7705 41.4587 16.8988 41.149 17.1272 40.9207C17.3556 40.6923 17.6653 40.5639 17.9882 40.5637L35.7281 40.5623L12.5303 17.3644C12.3017 17.1359 12.1733 16.8259 12.1733 16.5026C12.1733 16.1794 12.3017 15.8694 12.5303 15.6408C12.7588 15.4123 13.0688 15.2839 13.3921 15.2839C13.7153 15.2839 14.0253 15.4123 14.2538 15.6408L37.4517 38.8387L37.4531 21.0988C37.4643 20.7832 37.5975 20.4843 37.8247 20.265C38.0519 20.0456 38.3553 19.9231 38.6711 19.9231C38.9869 19.9231 39.2904 20.0456 39.5176 20.265C39.7448 20.4843 39.878 20.7832 39.8891 21.0988L39.8891 41.7817C39.8889 42.1047 39.7605 42.4144 39.5321 42.6427C39.3038 42.8711 38.9941 42.9995 38.6711 42.9997L17.9882 42.9997C17.6653 42.9995 17.3556 42.8711 17.1272 42.6427C16.8988 42.4144 16.7705 42.1047 16.7703 41.7817Z" fill="white"/>
</g>
<defs>
<clipPath id="clip0_206_136">
<rect width="52" height="52" fill="white" transform="translate(0 0.984863)"/>
</clipPath>
</defs>
</svg>
